<?xml version="1.0" encoding="UTF-8"?>
<svg width="312px" height="57px" viewBox="0 0 312 57" version="1.1" xmlns="http://www.w3.org/2000/svg" xmlns:xlink="http://www.w3.org/1999/xlink">
    <title>HeapsterID</title>
    <g id="Page-1" stroke="none" stroke-width="1" fill="none" fill-rule="evenodd">
        <g id="Home" transform="translate(-551, -683)" fill="#D0E321" fill-rule="nonzero">
            <g id="HeapsterID" transform="translate(551.4446, 683.3477)">
                <path d="M4.00390625,43.6523438 C2.89713542,43.6523438 1.953125,43.359375 1.171875,42.7734375 C0.390625,42.1875 0,41.4713542 0,40.625 C0,39.7135417 0.390625,38.9648438 1.171875,38.3789062 C1.953125,37.7929688 2.89713542,37.5 4.00390625,37.5 C5.11067708,37.5 6.0546875,37.7929688 6.8359375,38.3789062 C7.6171875,38.9648438 8.0078125,39.7135417 8.0078125,40.625 C8.0078125,41.4713542 7.6171875,42.1875 6.8359375,42.7734375 C6.0546875,43.359375 5.11067708,43.6523438 4.00390625,43.6523438 Z M29.0039062,43.6523438 C27.8971354,43.6523438 26.953125,43.359375 26.171875,42.7734375 C25.390625,42.1875 25,41.4713542 25,40.625 C25,39.7135417 25.390625,38.9648438 26.171875,38.3789062 C26.953125,37.7929688 27.8971354,37.5 29.0039062,37.5 C30.1106771,37.5 31.0546875,37.7929688 31.8359375,38.3789062 C32.6171875,38.9648438 33.0078125,39.7135417 33.0078125,40.625 C33.0078125,41.4713542 32.6171875,42.1875 31.8359375,42.7734375 C31.0546875,43.359375 30.1106771,43.6523438 29.0039062,43.6523438 Z M4.00390625,37.4023438 C2.89713542,37.4023438 1.953125,37.109375 1.171875,36.5234375 C0.390625,35.9375 0,35.2213542 0,34.375 C0,33.4635417 0.390625,32.7148438 1.171875,32.1289062 C1.953125,31.5429688 2.89713542,31.25 4.00390625,31.25 C5.11067708,31.25 6.0546875,31.5429688 6.8359375,32.1289062 C7.6171875,32.7148438 8.0078125,33.4635417 8.0078125,34.375 C8.0078125,35.2213542 7.6171875,35.9375 6.8359375,36.5234375 C6.0546875,37.109375 5.11067708,37.4023438 4.00390625,37.4023438 Z M29.0039062,37.4023438 C27.8971354,37.4023438 26.953125,37.109375 26.171875,36.5234375 C25.390625,35.9375 25,35.2213542 25,34.375 C25,33.4635417 25.390625,32.7148438 26.171875,32.1289062 C26.953125,31.5429688 27.8971354,31.25 29.0039062,31.25 C30.1106771,31.25 31.0546875,31.5429688 31.8359375,32.1289062 C32.6171875,32.7148438 33.0078125,33.4635417 33.0078125,34.375 C33.0078125,35.2213542 32.6171875,35.9375 31.8359375,36.5234375 C31.0546875,37.109375 30.1106771,37.4023438 29.0039062,37.4023438 Z M4.00390625,31.1523438 C2.89713542,31.1523438 1.953125,30.859375 1.171875,30.2734375 C0.390625,29.6875 0,28.9713542 0,28.125 C0,27.2135417 0.390625,26.4648438 1.171875,25.8789062 C1.953125,25.2929688 2.89713542,25 4.00390625,25 C5.11067708,25 6.0546875,25.2929688 6.8359375,25.8789062 C7.6171875,26.4648438 8.0078125,27.2135417 8.0078125,28.125 C8.0078125,28.9713542 7.6171875,29.6875 6.8359375,30.2734375 C6.0546875,30.859375 5.11067708,31.1523438 4.00390625,31.1523438 Z M29.0039062,31.1523438 C27.8971354,31.1523438 26.953125,30.859375 26.171875,30.2734375 C25.390625,29.6875 25,28.9713542 25,28.125 C25,27.2135417 25.390625,26.4648438 26.171875,25.8789062 C26.953125,25.2929688 27.8971354,25 29.0039062,25 C30.1106771,25 31.0546875,25.2929688 31.8359375,25.8789062 C32.6171875,26.4648438 33.0078125,27.2135417 33.0078125,28.125 C33.0078125,28.9713542 32.6171875,29.6875 31.8359375,30.2734375 C31.0546875,30.859375 30.1106771,31.1523438 29.0039062,31.1523438 Z M4.00390625,24.9023438 C2.89713542,24.9023438 1.953125,24.609375 1.171875,24.0234375 C0.390625,23.4375 0,22.7213542 0,21.875 C0,20.9635417 0.390625,20.2148438 1.171875,19.6289062 C1.953125,19.0429688 2.89713542,18.75 4.00390625,18.75 C5.11067708,18.75 6.0546875,19.0429688 6.8359375,19.6289062 C7.6171875,20.2148438 8.0078125,20.9635417 8.0078125,21.875 C8.0078125,22.7213542 7.6171875,23.4375 6.8359375,24.0234375 C6.0546875,24.609375 5.11067708,24.9023438 4.00390625,24.9023438 Z M16.5039062,24.9023438 C15.3971354,24.9023438 14.453125,24.609375 13.671875,24.0234375 C12.890625,23.4375 12.5,22.7213542 12.5,21.875 C12.5,20.9635417 12.890625,20.2148438 13.671875,19.6289062 C14.453125,19.0429688 15.3971354,18.75 16.5039062,18.75 C17.6106771,18.75 18.5546875,19.0429688 19.3359375,19.6289062 C19.4010417,19.6940104 19.4986979,19.7591146 19.6289063,19.8242188 C19.6940104,19.7591146 19.7916667,19.6940104 19.921875,19.6289062 C20.703125,19.0429688 21.6471354,18.75 22.7539062,18.75 C23.8606771,18.75 24.8046875,19.0429688 25.5859375,19.6289062 C25.6510417,19.6940104 25.7486979,19.7591146 25.8789063,19.8242188 C25.9440104,19.7591146 26.0416667,19.6940104 26.171875,19.6289062 C26.953125,19.0429688 27.8971354,18.75 29.0039063,18.75 C30.1106771,18.75 31.0546875,19.0429688 31.8359375,19.6289062 C32.6171875,20.2148438 33.0078125,20.9635417 33.0078125,21.875 C33.0078125,22.7213542 32.6171875,23.4375 31.8359375,24.0234375 C31.0546875,24.609375 30.1106771,24.9023438 29.0039063,24.9023438 C27.8971354,24.9023438 26.953125,24.609375 26.171875,24.0234375 C26.0416667,23.9583333 25.9440104,23.8932292 25.8789063,23.828125 C25.7486979,23.8932292 25.6510417,23.9583333 25.5859375,24.0234375 C24.8046875,24.609375 23.8606771,24.9023438 22.7539062,24.9023438 C21.6471354,24.9023438 20.703125,24.609375 19.921875,24.0234375 C19.7916667,23.9583333 19.6940104,23.8932292 19.6289063,23.828125 C19.4986979,23.8932292 19.4010417,23.9583333 19.3359375,24.0234375 C18.5546875,24.609375 17.6106771,24.9023438 16.5039062,24.9023438 Z M4.00390625,18.6523438 C2.89713542,18.6523438 1.953125,18.359375 1.171875,17.7734375 C0.390625,17.1875 0,16.4713542 0,15.625 C0,14.7135417 0.390625,13.9648438 1.171875,13.3789062 C1.953125,12.7929688 2.89713542,12.5 4.00390625,12.5 C5.11067708,12.5 6.0546875,12.7929688 6.8359375,13.3789062 C7.6171875,13.9648438 8.0078125,14.7135417 8.0078125,15.625 C8.0078125,16.4713542 7.6171875,17.1875 6.8359375,17.7734375 C6.0546875,18.359375 5.11067708,18.6523438 4.00390625,18.6523438 Z M29.0039062,18.6523438 C27.8971354,18.6523438 26.953125,18.359375 26.171875,17.7734375 C25.390625,17.1875 25,16.4713542 25,15.625 C25,14.7135417 25.390625,13.9648438 26.171875,13.3789062 C26.953125,12.7929688 27.8971354,12.5 29.0039062,12.5 C30.1106771,12.5 31.0546875,12.7929688 31.8359375,13.3789062 C32.6171875,13.9648438 33.0078125,14.7135417 33.0078125,15.625 C33.0078125,16.4713542 32.6171875,17.1875 31.8359375,17.7734375 C31.0546875,18.359375 30.1106771,18.6523438 29.0039062,18.6523438 Z M4.00390625,12.4023438 C2.89713542,12.4023438 1.953125,12.109375 1.171875,11.5234375 C0.390625,10.9375 0,10.2213542 0,9.375 C0,8.46354167 0.390625,7.71484375 1.171875,7.12890625 C1.953125,6.54296875 2.89713542,6.25 4.00390625,6.25 C5.11067708,6.25 6.0546875,6.54296875 6.8359375,7.12890625 C7.6171875,7.71484375 8.0078125,8.46354167 8.0078125,9.375 C8.0078125,10.2213542 7.6171875,10.9375 6.8359375,11.5234375 C6.0546875,12.109375 5.11067708,12.4023438 4.00390625,12.4023438 Z M29.0039062,12.4023438 C27.8971354,12.4023438 26.953125,12.109375 26.171875,11.5234375 C25.390625,10.9375 25,10.2213542 25,9.375 C25,8.46354167 25.390625,7.71484375 26.171875,7.12890625 C26.953125,6.54296875 27.8971354,6.25 29.0039062,6.25 C30.1106771,6.25 31.0546875,6.54296875 31.8359375,7.12890625 C32.6171875,7.71484375 33.0078125,8.46354167 33.0078125,9.375 C33.0078125,10.2213542 32.6171875,10.9375 31.8359375,11.5234375 C31.0546875,12.109375 30.1106771,12.4023438 29.0039062,12.4023438 Z M4.00390625,6.15234375 C2.89713542,6.15234375 1.953125,5.859375 1.171875,5.2734375 C0.390625,4.6875 0,3.97135417 0,3.125 C0,2.21354167 0.390625,1.46484375 1.171875,0.87890625 C1.953125,0.29296875 2.89713542,0 4.00390625,0 C5.11067708,0 6.0546875,0.29296875 6.8359375,0.87890625 C7.6171875,1.46484375 8.0078125,2.21354167 8.0078125,3.125 C8.0078125,3.97135417 7.6171875,4.6875 6.8359375,5.2734375 C6.0546875,5.859375 5.11067708,6.15234375 4.00390625,6.15234375 Z M29.0039062,6.15234375 C27.8971354,6.15234375 26.953125,5.859375 26.171875,5.2734375 C25.390625,4.6875 25,3.97135417 25,3.125 C25,2.21354167 25.390625,1.46484375 26.171875,0.87890625 C26.953125,0.29296875 27.8971354,0 29.0039062,0 C30.1106771,0 31.0546875,0.29296875 31.8359375,0.87890625 C32.6171875,1.46484375 33.0078125,2.21354167 33.0078125,3.125 C33.0078125,3.97135417 32.6171875,4.6875 31.8359375,5.2734375 C31.0546875,5.859375 30.1106771,6.15234375 29.0039062,6.15234375 Z" id="Shape"></path>
                <path d="M49.5117188,43.6523438 C48.4049479,43.6523438 47.4609375,43.359375 46.6796875,42.7734375 C45.8984375,42.1875 45.5078125,41.4713542 45.5078125,40.625 C45.5078125,39.7135417 45.8984375,38.9648438 46.6796875,38.3789062 C47.4609375,37.7929688 48.4049479,37.5 49.5117188,37.5 C50.6184896,37.5 51.5625,37.7929688 52.34375,38.3789062 C52.4088542,38.4440104 52.5065104,38.5091146 52.6367188,38.5742188 C52.7018229,38.5091146 52.7994792,38.4440104 52.9296875,38.3789062 C53.7109375,37.7929688 54.6549479,37.5 55.7617188,37.5 C56.8684896,37.5 57.8125,37.7929688 58.59375,38.3789062 C59.375,38.9648438 59.765625,39.7135417 59.765625,40.625 C59.765625,41.4713542 59.375,42.1875 58.59375,42.7734375 C57.8125,43.359375 56.8684896,43.6523438 55.7617188,43.6523438 C54.6549479,43.6523438 53.7109375,43.359375 52.9296875,42.7734375 C52.7994792,42.7083333 52.7018229,42.6432292 52.6367188,42.578125 C52.5065104,42.6432292 52.4088542,42.7083333 52.34375,42.7734375 C51.5625,43.359375 50.6184896,43.6523438 49.5117188,43.6523438 Z M43.2617188,37.4023438 C42.1549479,37.4023438 41.2109375,37.109375 40.4296875,36.5234375 C39.6484375,35.9375 39.2578125,35.2213542 39.2578125,34.375 C39.2578125,33.4635417 39.6484375,32.7148438 40.4296875,32.1289062 C41.2109375,31.5429688 42.1549479,31.25 43.2617188,31.25 C44.3684896,31.25 45.3125,31.5429688 46.09375,32.1289062 C46.875,32.7148438 47.265625,33.4635417 47.265625,34.375 C47.265625,35.2213542 46.875,35.9375 46.09375,36.5234375 C45.3125,37.109375 44.3684896,37.4023438 43.2617188,37.4023438 Z M49.5117188,31.1523438 C48.4049479,31.1523438 47.4609375,30.859375 46.6796875,30.2734375 C45.8984375,29.6875 45.5078125,28.9713542 45.5078125,28.125 C45.5078125,27.2135417 45.8984375,26.4648438 46.6796875,25.8789062 C47.4609375,25.2929688 48.4049479,25 49.5117188,25 C50.6184896,25 51.5625,25.2929688 52.34375,25.8789062 C52.4088542,25.9440104 52.5065104,26.0091146 52.6367187,26.0742188 C52.7018229,26.0091146 52.7994792,25.9440104 52.9296875,25.8789062 C53.7109375,25.2929688 54.6549479,25 55.7617187,25 C56.8684896,25 57.8125,25.2929688 58.59375,25.8789062 C58.6588542,25.9440104 58.7565104,26.0091146 58.8867187,26.0742188 C58.9518229,26.0091146 59.0494792,25.9440104 59.1796875,25.8789062 C59.9609375,25.2929688 60.9049479,25 62.0117187,25 C63.1184896,25 64.0625,25.2929688 64.84375,25.8789062 C65.625,26.4648438 66.015625,27.2135417 66.015625,28.125 C66.015625,28.9713542 65.625,29.6875 64.84375,30.2734375 C64.0625,30.859375 63.1184896,31.1523438 62.0117187,31.1523438 C60.9049479,31.1523438 59.9609375,30.859375 59.1796875,30.2734375 C59.0494792,30.2083333 58.9518229,30.1432292 58.8867187,30.078125 C58.7565104,30.1432292 58.6588542,30.2083333 58.59375,30.2734375 C57.8125,30.859375 56.8684896,31.1523438 55.7617187,31.1523438 C54.6549479,31.1523438 53.7109375,30.859375 52.9296875,30.2734375 C52.7994792,30.2083333 52.7018229,30.1432292 52.6367187,30.078125 C52.5065104,30.1432292 52.4088542,30.2083333 52.34375,30.2734375 C51.5625,30.859375 50.6184896,31.1523438 49.5117188,31.1523438 Z M55.7617188,24.9023438 C54.6549479,24.9023438 53.7109375,24.609375 52.9296875,24.0234375 C52.1484375,23.4375 51.7578125,22.7213542 51.7578125,21.875 C51.7578125,20.9635417 52.1484375,20.2148438 52.9296875,19.6289062 C53.7109375,19.0429688 54.6549479,18.75 55.7617188,18.75 C56.8684896,18.75 57.8125,19.0429688 58.59375,19.6289062 C59.375,20.2148438 59.765625,20.9635417 59.765625,21.875 C59.765625,22.7213542 59.375,23.4375 58.59375,24.0234375 C57.8125,24.609375 56.8684896,24.9023438 55.7617188,24.9023438 Z" id="Shape"></path>
                <path d="M76.2695312,43.6523438 C75.1627604,43.6523438 74.21875,43.359375 73.4375,42.7734375 C72.65625,42.1875 72.265625,41.4713542 72.265625,40.625 C72.265625,39.7135417 72.65625,38.9648438 73.4375,38.3789062 C74.21875,37.7929688 75.1627604,37.5 76.2695312,37.5 C77.3763021,37.5 78.3203125,37.7929688 79.1015625,38.3789062 C79.1666667,38.4440104 79.2643229,38.5091146 79.3945313,38.5742188 C79.4596354,38.5091146 79.5572917,38.4440104 79.6875,38.3789062 C80.46875,37.7929688 81.4127604,37.5 82.5195312,37.5 C83.6263021,37.5 84.5703125,37.7929688 85.3515625,38.3789062 C85.4166667,38.4440104 85.5143229,38.5091146 85.6445313,38.5742188 C85.7096354,38.5091146 85.8072917,38.4440104 85.9375,38.3789062 C86.71875,37.7929688 87.6627604,37.5 88.7695312,37.5 C89.8763021,37.5 90.8203125,37.7929688 91.6015625,38.3789062 C92.3828125,38.9648438 92.7734375,39.7135417 92.7734375,40.625 C92.7734375,41.4713542 92.3828125,42.1875 91.6015625,42.7734375 C90.8203125,43.359375 89.8763021,43.6523438 88.7695312,43.6523438 C87.6627604,43.6523438 86.71875,43.359375 85.9375,42.7734375 C85.8072917,42.7083333 85.7096354,42.6432292 85.6445313,42.578125 C85.5143229,42.6432292 85.4166667,42.7083333 85.3515625,42.7734375 C84.5703125,43.359375 83.6263021,43.6523438 82.5195312,43.6523438 C81.4127604,43.6523438 80.46875,43.359375 79.6875,42.7734375 C79.5572917,42.7083333 79.4596354,42.6432292 79.3945313,42.578125 C79.3945313,42.578125 79.3945313,42.578125 79.3945313,42.578125 L79.3945313,42.578125 C79.3945313,42.578125 79.3945313,42.578125 79.3945313,42.578125 C79.2643229,42.6432292 79.1666667,42.7083333 79.1015625,42.7734375 C78.3203125,43.359375 77.3763021,43.6523438 76.2695312,43.6523438 Z M76.2695312,37.4023438 C75.1627604,37.4023438 74.21875,37.109375 73.4375,36.5234375 C72.65625,35.9375 72.265625,35.2213542 72.265625,34.375 C72.265625,33.4635417 72.65625,32.7148438 73.4375,32.1289062 C74.21875,31.5429688 75.1627604,31.25 76.2695312,31.25 C77.3763021,31.25 78.3203125,31.5429688 79.1015625,32.1289062 C79.8828125,32.7148438 80.2734375,33.4635417 80.2734375,34.375 C80.2734375,35.2213542 79.8828125,35.9375 79.1015625,36.5234375 C78.3203125,37.109375 77.3763021,37.4023438 76.2695312,37.4023438 Z M88.7695312,37.4023438 C87.6627604,37.4023438 86.71875,37.109375 85.9375,36.5234375 C85.15625,35.9375 84.765625,35.2213542 84.765625,34.375 C84.765625,33.4635417 85.15625,32.7148438 85.9375,32.1289062 C86.71875,31.5429688 87.6627604,31.25 88.7695312,31.25 C89.8763021,31.25 90.8203125,31.5429688 91.6015625,32.1289062 C92.3828125,32.7148438 92.7734375,33.4635417 92.7734375,34.375 C92.7734375,35.2213542 92.3828125,35.9375 91.6015625,36.5234375 C90.8203125,37.109375 89.8763021,37.4023438 88.7695312,37.4023438 Z M88.7695312,31.1523438 C87.6627604,31.1523438 86.71875,30.859375 85.9375,30.2734375 C85.15625,29.6875 84.765625,28.9713542 84.765625,28.125 C84.765625,27.2135417 85.15625,26.4648438 85.9375,25.8789062 C86.71875,25.2929688 87.6627604,25 88.7695312,25 C89.8763021,25 90.8203125,25.2929688 91.6015625,25.8789062 C92.3828125,26.4648438 92.7734375,27.2135417 92.7734375,28.125 C92.7734375,28.9713542 92.3828125,29.6875 91.6015625,30.2734375 C90.8203125,30.859375 89.8763021,31.1523438 88.7695312,31.1523438 Z M82.5195312,24.9023438 C81.4127604,24.9023438 80.46875,24.609375 79.6875,24.0234375 C78.90625,23.4375 78.515625,22.7213542 78.515625,21.875 C78.515625,20.9635417 78.90625,20.2148438 79.6875,19.6289062 C80.46875,19.0429688 81.4127604,18.75 82.5195312,18.75 C83.6263021,18.75 84.5703125,19.0429688 85.3515625,19.6289062 C85.4166667,19.6940104 85.5143229,19.7591146 85.6445312,19.8242188 C85.7096354,19.7591146 85.8072917,19.6940104 85.9375,19.6289062 C86.71875,19.0429688 87.6627604,18.75 88.7695312,18.75 C89.8763021,18.75 90.8203125,19.0429688 91.6015625,19.6289062 C92.3828125,20.2148438 92.7734375,20.9635417 92.7734375,21.875 C92.7734375,22.7213542 92.3828125,23.4375 91.6015625,24.0234375 C90.8203125,24.609375 89.8763021,24.9023438 88.7695312,24.9023438 C87.6627604,24.9023438 86.71875,24.609375 85.9375,24.0234375 C85.8072917,23.9583333 85.7096354,23.8932292 85.6445312,23.828125 C85.5143229,23.8932292 85.4166667,23.9583333 85.3515625,24.0234375 C84.5703125,24.609375 83.6263021,24.9023438 82.5195312,24.9023438 Z" id="Shape"></path>
                <path d="M103.027344,56.1523438 C101.920573,56.1523438 100.976562,55.8268229 100.195312,55.1757812 C99.4140625,54.5898438 99.0234375,53.8736979 99.0234375,53.0273438 C99.0234375,52.1158854 99.4140625,51.3671875 100.195312,50.78125 C100.976562,50.1953125 101.920573,49.9023438 103.027344,49.9023438 C104.134115,49.9023438 105.078125,50.1953125 105.859375,50.78125 C106.640625,51.3671875 107.03125,52.1158854 107.03125,53.0273438 C107.03125,53.8736979 106.640625,54.5898438 105.859375,55.1757812 C105.078125,55.8268229 104.134115,56.1523438 103.027344,56.1523438 Z M103.027344,49.9023438 C101.920573,49.9023438 100.976562,49.5768229 100.195312,48.9257812 C99.4140625,48.3398438 99.0234375,47.6236979 99.0234375,46.7773438 C99.0234375,45.8658854 99.4140625,45.1171875 100.195312,44.53125 C100.976562,43.9453125 101.920573,43.6523438 103.027344,43.6523438 C104.134115,43.6523438 105.078125,43.9453125 105.859375,44.53125 C106.640625,45.1171875 107.03125,45.8658854 107.03125,46.7773438 C107.03125,47.6236979 106.640625,48.3398438 105.859375,48.9257812 C105.078125,49.5768229 104.134115,49.9023438 103.027344,49.9023438 Z M103.027344,43.6523438 C101.920573,43.6523438 100.976562,43.359375 100.195312,42.7734375 C99.4140625,42.1875 99.0234375,41.4713542 99.0234375,40.625 C99.0234375,39.7135417 99.4140625,38.9648438 100.195312,38.3789062 C100.976562,37.7929688 101.920573,37.5 103.027344,37.5 C104.134115,37.5 105.078125,37.7929688 105.859375,38.3789062 C105.924479,38.4440104 106.022135,38.5091146 106.152344,38.5742188 C106.217448,38.5091146 106.315104,38.4440104 106.445312,38.3789062 C107.226562,37.7929688 108.170573,37.5 109.277344,37.5 C110.384115,37.5 111.328125,37.7929688 112.109375,38.3789062 C112.890625,38.9648438 113.28125,39.7135417 113.28125,40.625 C113.28125,41.4713542 112.890625,42.1875 112.109375,42.7734375 C111.328125,43.359375 110.384115,43.6523438 109.277344,43.6523438 C108.170573,43.6523438 107.226562,43.359375 106.445312,42.7734375 C106.315104,42.7083333 106.217448,42.6432292 106.152344,42.578125 C106.152344,42.578125 106.152344,42.578125 106.152344,42.578125 L106.152344,42.578125 C106.152344,42.578125 106.152344,42.578125 106.152344,42.578125 C106.022135,42.6432292 105.924479,42.7083333 105.859375,42.7734375 C105.078125,43.359375 104.134115,43.6523438 103.027344,43.6523438 Z M103.027344,37.4023438 C101.920573,37.4023438 100.976562,37.109375 100.195312,36.5234375 C99.4140625,35.9375 99.0234375,35.2213542 99.0234375,34.375 C99.0234375,33.4635417 99.4140625,32.7148438 100.195312,32.1289062 C100.976562,31.5429688 101.920573,31.25 103.027344,31.25 C104.134115,31.25 105.078125,31.5429688 105.859375,32.1289062 C106.640625,32.7148438 107.03125,33.4635417 107.03125,34.375 C107.03125,35.2213542 106.640625,35.9375 105.859375,36.5234375 C105.078125,37.109375 104.134115,37.4023438 103.027344,37.4023438 Z M115.527344,37.4023438 C114.420573,37.4023438 113.476562,37.109375 112.695312,36.5234375 C111.914062,35.9375 111.523438,35.2213542 111.523438,34.375 C111.523438,33.4635417 111.914062,32.7148438 112.695312,32.1289062 C113.476562,31.5429688 114.420573,31.25 115.527344,31.25 C116.634115,31.25 117.578125,31.5429688 118.359375,32.1289062 C119.140625,32.7148438 119.53125,33.4635417 119.53125,34.375 C119.53125,35.2213542 119.140625,35.9375 118.359375,36.5234375 C117.578125,37.109375 116.634115,37.4023438 115.527344,37.4023438 Z M109.277344,31.1523438 C108.170573,31.1523438 107.226562,30.859375 106.445312,30.2734375 C105.664062,29.6875 105.273438,28.9713542 105.273438,28.125 C105.273438,27.2135417 105.664062,26.4648438 106.445312,25.8789062 C107.226562,25.2929688 108.170573,25 109.277344,25 C110.384115,25 111.328125,25.2929688 112.109375,25.8789062 C112.890625,26.4648438 113.28125,27.2135417 113.28125,28.125 C113.28125,28.9713542 112.890625,29.6875 112.109375,30.2734375 C111.328125,30.859375 110.384115,31.1523438 109.277344,31.1523438 Z" id="Shape"></path>
                <path d="M136.035156,43.6523438 C134.928385,43.6523438 133.984375,43.359375 133.203125,42.7734375 C132.421875,42.1875 132.03125,41.4713542 132.03125,40.625 C132.03125,39.7135417 132.421875,38.9648438 133.203125,38.3789062 C133.984375,37.7929688 134.928385,37.5 136.035156,37.5 C137.141927,37.5 138.085938,37.7929688 138.867188,38.3789062 C138.932292,38.4440104 139.029948,38.5091146 139.160156,38.5742188 C139.22526,38.5091146 139.322917,38.4440104 139.453125,38.3789062 C140.234375,37.7929688 141.178385,37.5 142.285156,37.5 C143.391927,37.5 144.335938,37.7929688 145.117188,38.3789062 C145.898438,38.9648438 146.289062,39.7135417 146.289062,40.625 C146.289062,41.4713542 145.898438,42.1875 145.117188,42.7734375 C144.335938,43.359375 143.391927,43.6523438 142.285156,43.6523438 C141.178385,43.6523438 140.234375,43.359375 139.453125,42.7734375 C139.322917,42.7083333 139.22526,42.6432292 139.160156,42.578125 C139.029948,42.6432292 138.932292,42.7083333 138.867188,42.7734375 C138.085938,43.359375 137.141927,43.6523438 136.035156,43.6523438 Z M142.285156,37.4023438 C141.178385,37.4023438 140.234375,37.109375 139.453125,36.5234375 C138.671875,35.9375 138.28125,35.2213542 138.28125,34.375 C138.28125,33.4635417 138.671875,32.7148438 139.453125,32.1289062 C140.234375,31.5429688 141.178385,31.25 142.285156,31.25 C143.391927,31.25 144.335938,31.5429688 145.117188,32.1289062 C145.182292,32.1940104 145.279948,32.2591146 145.410156,32.3242188 C145.47526,32.2591146 145.572917,32.1940104 145.703125,32.1289062 C146.484375,31.5429688 147.428385,31.25 148.535156,31.25 C149.641927,31.25 150.585938,31.5429688 151.367188,32.1289062 C152.148438,32.7148438 152.539062,33.4635417 152.539062,34.375 C152.539062,35.2213542 152.148438,35.9375 151.367188,36.5234375 C150.585938,37.109375 149.641927,37.4023438 148.535156,37.4023438 C147.428385,37.4023438 146.484375,37.109375 145.703125,36.5234375 C145.572917,36.4583333 145.47526,36.3932292 145.410156,36.328125 C145.279948,36.3932292 145.182292,36.4583333 145.117188,36.5234375 C144.335938,37.109375 143.391927,37.4023438 142.285156,37.4023438 Z M129.785156,31.1523438 C128.678385,31.1523438 127.734375,30.859375 126.953125,30.2734375 C126.171875,29.6875 125.78125,28.9713542 125.78125,28.125 C125.78125,27.2135417 126.171875,26.4648438 126.953125,25.8789062 C127.734375,25.2929688 128.678385,25 129.785156,25 C130.891927,25 131.835938,25.2929688 132.617188,25.8789062 C132.682292,25.9440104 132.779948,26.0091146 132.910156,26.0742188 C132.97526,26.0091146 133.072917,25.9440104 133.203125,25.8789062 C133.984375,25.2929688 134.928385,25 136.035156,25 C137.141927,25 138.085938,25.2929688 138.867188,25.8789062 C139.648438,26.4648438 140.039062,27.2135417 140.039062,28.125 C140.039062,28.9713542 139.648438,29.6875 138.867188,30.2734375 C138.085938,30.859375 137.141927,31.1523438 136.035156,31.1523438 C134.928385,31.1523438 133.984375,30.859375 133.203125,30.2734375 C133.072917,30.2083333 132.97526,30.1432292 132.910156,30.078125 C132.779948,30.1432292 132.682292,30.2083333 132.617188,30.2734375 C131.835938,30.859375 130.891927,31.1523438 129.785156,31.1523438 Z M136.035156,24.9023438 C134.928385,24.9023438 133.984375,24.609375 133.203125,24.0234375 C132.421875,23.4375 132.03125,22.7213542 132.03125,21.875 C132.03125,20.9635417 132.421875,20.2148438 133.203125,19.6289062 C133.984375,19.0429688 134.928385,18.75 136.035156,18.75 C137.141927,18.75 138.085938,19.0429688 138.867188,19.6289062 C138.932292,19.6940104 139.029948,19.7591146 139.160156,19.8242188 C139.22526,19.7591146 139.322917,19.6940104 139.453125,19.6289062 C140.234375,19.0429688 141.178385,18.75 142.285156,18.75 C143.391927,18.75 144.335938,19.0429688 145.117188,19.6289062 C145.898438,20.2148438 146.289062,20.9635417 146.289062,21.875 C146.289062,22.7213542 145.898438,23.4375 145.117188,24.0234375 C144.335938,24.609375 143.391927,24.9023438 142.285156,24.9023438 C141.178385,24.9023438 140.234375,24.609375 139.453125,24.0234375 C139.322917,23.9583333 139.22526,23.8932292 139.160156,23.828125 C139.029948,23.8932292 138.932292,23.9583333 138.867188,24.0234375 C138.085938,24.609375 137.141927,24.9023438 136.035156,24.9023438 Z" id="Shape"></path>
                <path d="M169.042969,43.6523438 C167.936198,43.6523438 166.992188,43.359375 166.210938,42.7734375 C165.429688,42.1875 165.039062,41.4713542 165.039062,40.625 C165.039062,39.7135417 165.429688,38.9648438 166.210938,38.3789062 C166.992188,37.7929688 167.936198,37.5 169.042969,37.5 C170.14974,37.5 171.09375,37.7929688 171.875,38.3789062 C172.65625,38.9648438 173.046875,39.7135417 173.046875,40.625 C173.046875,41.4713542 172.65625,42.1875 171.875,42.7734375 C171.09375,43.359375 170.14974,43.6523438 169.042969,43.6523438 Z M169.042969,37.4023438 C167.936198,37.4023438 166.992188,37.109375 166.210938,36.5234375 C165.429688,35.9375 165.039062,35.2213542 165.039062,34.375 C165.039062,33.4635417 165.429688,32.7148438 166.210938,32.1289062 C166.992188,31.5429688 167.936198,31.25 169.042969,31.25 C170.14974,31.25 171.09375,31.5429688 171.875,32.1289062 C172.65625,32.7148438 173.046875,33.4635417 173.046875,34.375 C173.046875,35.2213542 172.65625,35.9375 171.875,36.5234375 C171.09375,37.109375 170.14974,37.4023438 169.042969,37.4023438 Z M162.792969,31.1523438 C161.686198,31.1523438 160.742188,30.859375 159.960938,30.2734375 C159.179688,29.6875 158.789062,28.9713542 158.789062,28.125 C158.789062,27.2135417 159.179688,26.4648438 159.960938,25.8789062 C160.742188,25.2929688 161.686198,25 162.792969,25 C163.89974,25 164.84375,25.2929688 165.625,25.8789062 C165.690104,25.9440104 165.78776,26.0091146 165.917969,26.0742188 C165.983073,26.0091146 166.080729,25.9440104 166.210938,25.8789062 C166.992188,25.2929688 167.936198,25 169.042969,25 C170.14974,25 171.09375,25.2929688 171.875,25.8789062 C171.940104,25.9440104 172.03776,26.0091146 172.167969,26.0742188 C172.233073,26.0091146 172.330729,25.9440104 172.460938,25.8789062 C173.242188,25.2929688 174.186198,25 175.292969,25 C176.39974,25 177.34375,25.2929688 178.125,25.8789062 C178.90625,26.4648438 179.296875,27.2135417 179.296875,28.125 C179.296875,28.9713542 178.90625,29.6875 178.125,30.2734375 C177.34375,30.859375 176.39974,31.1523438 175.292969,31.1523438 C174.186198,31.1523438 173.242188,30.859375 172.460938,30.2734375 C172.330729,30.2083333 172.233073,30.1432292 172.167969,30.078125 C172.03776,30.1432292 171.940104,30.2083333 171.875,30.2734375 C171.09375,30.859375 170.14974,31.1523438 169.042969,31.1523438 C167.936198,31.1523438 166.992188,30.859375 166.210938,30.2734375 C166.080729,30.2083333 165.983073,30.1432292 165.917969,30.078125 C165.78776,30.1432292 165.690104,30.2083333 165.625,30.2734375 C164.84375,30.859375 163.89974,31.1523438 162.792969,31.1523438 Z M169.042969,24.9023438 C167.936198,24.9023438 166.992188,24.609375 166.210938,24.0234375 C165.429688,23.4375 165.039062,22.7213542 165.039062,21.875 C165.039062,20.9635417 165.429688,20.2148438 166.210938,19.6289062 C166.992188,19.0429688 167.936198,18.75 169.042969,18.75 C170.14974,18.75 171.09375,19.0429688 171.875,19.6289062 C172.65625,20.2148438 173.046875,20.9635417 173.046875,21.875 C173.046875,22.7213542 172.65625,23.4375 171.875,24.0234375 C171.09375,24.609375 170.14974,24.9023438 169.042969,24.9023438 Z" id="Shape"></path>
                <path d="M195.800781,43.6523438 C194.69401,43.6523438 193.75,43.359375 192.96875,42.7734375 C192.1875,42.1875 191.796875,41.4713542 191.796875,40.625 C191.796875,39.7135417 192.1875,38.9648438 192.96875,38.3789062 C193.75,37.7929688 194.69401,37.5 195.800781,37.5 C196.907552,37.5 197.851562,37.7929688 198.632812,38.3789062 C198.697917,38.4440104 198.795573,38.5091146 198.925781,38.5742188 C198.990885,38.5091146 199.088542,38.4440104 199.21875,38.3789062 C200,37.7929688 200.94401,37.5 202.050781,37.5 C203.157552,37.5 204.101562,37.7929688 204.882812,38.3789062 C205.664062,38.9648438 206.054688,39.7135417 206.054688,40.625 C206.054688,41.4713542 205.664062,42.1875 204.882812,42.7734375 C204.101562,43.359375 203.157552,43.6523438 202.050781,43.6523438 C200.94401,43.6523438 200,43.359375 199.21875,42.7734375 C199.088542,42.7083333 198.990885,42.6432292 198.925781,42.578125 C198.795573,42.6432292 198.697917,42.7083333 198.632812,42.7734375 C197.851562,43.359375 196.907552,43.6523438 195.800781,43.6523438 Z M189.550781,37.4023438 C188.44401,37.4023438 187.5,37.109375 186.71875,36.5234375 C185.9375,35.9375 185.546875,35.2213542 185.546875,34.375 C185.546875,33.4635417 185.9375,32.7148438 186.71875,32.1289062 C187.5,31.5429688 188.44401,31.25 189.550781,31.25 C190.657552,31.25 191.601562,31.5429688 192.382812,32.1289062 C193.164062,32.7148438 193.554688,33.4635417 193.554688,34.375 C193.554688,35.2213542 193.164062,35.9375 192.382812,36.5234375 C191.601562,37.109375 190.657552,37.4023438 189.550781,37.4023438 Z M195.800781,31.1523438 C194.69401,31.1523438 193.75,30.859375 192.96875,30.2734375 C192.1875,29.6875 191.796875,28.9713542 191.796875,28.125 C191.796875,27.2135417 192.1875,26.4648438 192.96875,25.8789062 C193.75,25.2929688 194.69401,25 195.800781,25 C196.907552,25 197.851562,25.2929688 198.632812,25.8789062 C198.697917,25.9440104 198.795573,26.0091146 198.925781,26.0742188 C198.990885,26.0091146 199.088542,25.9440104 199.21875,25.8789062 C200,25.2929688 200.94401,25 202.050781,25 C203.157552,25 204.101562,25.2929688 204.882812,25.8789062 C204.947917,25.9440104 205.045573,26.0091146 205.175781,26.0742188 C205.240885,26.0091146 205.338542,25.9440104 205.46875,25.8789062 C206.25,25.2929688 207.19401,25 208.300781,25 C209.407552,25 210.351562,25.2929688 211.132812,25.8789062 C211.914062,26.4648438 212.304688,27.2135417 212.304688,28.125 C212.304688,28.9713542 211.914062,29.6875 211.132812,30.2734375 C210.351562,30.859375 209.407552,31.1523438 208.300781,31.1523438 C207.19401,31.1523438 206.25,30.859375 205.46875,30.2734375 C205.338542,30.2083333 205.240885,30.1432292 205.175781,30.078125 C205.045573,30.1432292 204.947917,30.2083333 204.882812,30.2734375 C204.101562,30.859375 203.157552,31.1523438 202.050781,31.1523438 C200.94401,31.1523438 200,30.859375 199.21875,30.2734375 C199.088542,30.2083333 198.990885,30.1432292 198.925781,30.078125 C198.795573,30.1432292 198.697917,30.2083333 198.632812,30.2734375 C197.851562,30.859375 196.907552,31.1523438 195.800781,31.1523438 Z M202.050781,24.9023438 C200.94401,24.9023438 200,24.609375 199.21875,24.0234375 C198.4375,23.4375 198.046875,22.7213542 198.046875,21.875 C198.046875,20.9635417 198.4375,20.2148438 199.21875,19.6289062 C200,19.0429688 200.94401,18.75 202.050781,18.75 C203.157552,18.75 204.101562,19.0429688 204.882812,19.6289062 C205.664062,20.2148438 206.054688,20.9635417 206.054688,21.875 C206.054688,22.7213542 205.664062,23.4375 204.882812,24.0234375 C204.101562,24.609375 203.157552,24.9023438 202.050781,24.9023438 Z" id="Shape"></path>
                <path d="M222.558594,43.6523438 C221.451823,43.6523438 220.507812,43.359375 219.726562,42.7734375 C218.945312,42.1875 218.554688,41.4713542 218.554688,40.625 C218.554688,39.7135417 218.945312,38.9648438 219.726562,38.3789062 C220.507812,37.7929688 221.451823,37.5 222.558594,37.5 C223.665365,37.5 224.609375,37.7929688 225.390625,38.3789062 C226.171875,38.9648438 226.5625,39.7135417 226.5625,40.625 C226.5625,41.4713542 226.171875,42.1875 225.390625,42.7734375 C224.609375,43.359375 223.665365,43.6523438 222.558594,43.6523438 Z M222.558594,37.4023438 C221.451823,37.4023438 220.507812,37.109375 219.726562,36.5234375 C218.945312,35.9375 218.554688,35.2213542 218.554688,34.375 C218.554688,33.4635417 218.945312,32.7148438 219.726562,32.1289062 C220.507812,31.5429688 221.451823,31.25 222.558594,31.25 C223.665365,31.25 224.609375,31.5429688 225.390625,32.1289062 C226.171875,32.7148438 226.5625,33.4635417 226.5625,34.375 C226.5625,35.2213542 226.171875,35.9375 225.390625,36.5234375 C224.609375,37.109375 223.665365,37.4023438 222.558594,37.4023438 Z M228.808594,31.1523438 C227.701823,31.1523438 226.757812,30.859375 225.976562,30.2734375 C225.195312,29.6875 224.804688,28.9713542 224.804688,28.125 C224.804688,27.2135417 225.195312,26.4648438 225.976562,25.8789062 C226.757812,25.2929688 227.701823,25 228.808594,25 C229.915365,25 230.859375,25.2929688 231.640625,25.8789062 C231.705729,25.9440104 231.803385,26.0091146 231.933594,26.0742188 C231.998698,26.0091146 232.096354,25.9440104 232.226562,25.8789062 C233.007812,25.2929688 233.951823,25 235.058594,25 C236.165365,25 237.109375,25.2929688 237.890625,25.8789062 C238.671875,26.4648438 239.0625,27.2135417 239.0625,28.125 C239.0625,28.9713542 238.671875,29.6875 237.890625,30.2734375 C237.109375,30.859375 236.165365,31.1523438 235.058594,31.1523438 C233.951823,31.1523438 233.007812,30.859375 232.226562,30.2734375 C232.096354,30.2083333 231.998698,30.1432292 231.933594,30.078125 C231.803385,30.1432292 231.705729,30.2083333 231.640625,30.2734375 C230.859375,30.859375 229.915365,31.1523438 228.808594,31.1523438 Z" id="Shape"></path>
                <path d="M249.316406,43.6523438 C248.209635,43.6523438 247.265625,43.359375 246.484375,42.7734375 C245.703125,42.1875 245.3125,41.4713542 245.3125,40.625 C245.3125,39.7135417 245.703125,38.9648438 246.484375,38.3789062 C247.265625,37.7929688 248.209635,37.5 249.316406,37.5 C250.423177,37.5 251.367188,37.7929688 252.148438,38.3789062 C252.213542,38.4440104 252.311198,38.5091146 252.441406,38.5742188 C252.50651,38.5091146 252.604167,38.4440104 252.734375,38.3789062 C253.515625,37.7929688 254.459635,37.5 255.566406,37.5 C256.673177,37.5 257.617188,37.7929688 258.398438,38.3789062 C259.179688,38.9648438 259.570312,39.7135417 259.570312,40.625 C259.570312,41.4713542 259.179688,42.1875 258.398438,42.7734375 C257.617188,43.359375 256.673177,43.6523438 255.566406,43.6523438 C254.459635,43.6523438 253.515625,43.359375 252.734375,42.7734375 C252.604167,42.7083333 252.50651,42.6432292 252.441406,42.578125 C252.441406,42.578125 252.441406,42.578125 252.441406,42.578125 L252.441406,42.578125 C252.441406,42.578125 252.441406,42.578125 252.441406,42.578125 C252.311198,42.6432292 252.213542,42.7083333 252.148438,42.7734375 C251.367188,43.359375 250.423177,43.6523438 249.316406,43.6523438 Z M268.066406,43.6523438 C266.959635,43.6523438 266.015625,43.359375 265.234375,42.7734375 C264.453125,42.1875 264.0625,41.4713542 264.0625,40.625 C264.0625,39.7135417 264.453125,38.9648438 265.234375,38.3789062 C266.015625,37.7929688 266.959635,37.5 268.066406,37.5 C269.173177,37.5 270.117188,37.7929688 270.898438,38.3789062 C270.963542,38.4440104 271.061198,38.5091146 271.191406,38.5742188 C271.25651,38.5091146 271.354167,38.4440104 271.484375,38.3789062 C272.265625,37.7929688 273.209635,37.5 274.316406,37.5 C275.423177,37.5 276.367188,37.7929688 277.148438,38.3789062 C277.929688,38.9648438 278.320312,39.7135417 278.320312,40.625 C278.320312,41.4713542 277.929688,42.1875 277.148438,42.7734375 C276.367188,43.359375 275.423177,43.6523438 274.316406,43.6523438 C273.209635,43.6523438 272.265625,43.359375 271.484375,42.7734375 C271.354167,42.7083333 271.25651,42.6432292 271.191406,42.578125 C271.061198,42.6432292 270.963542,42.7083333 270.898438,42.7734375 C270.117188,43.359375 269.173177,43.6523438 268.066406,43.6523438 Z M261.816406,37.4023438 C260.709635,37.4023438 259.765625,37.109375 258.984375,36.5234375 C258.203125,35.9375 257.8125,35.2213542 257.8125,34.375 C257.8125,33.4635417 258.203125,32.7148438 258.984375,32.1289062 C259.765625,31.5429688 260.709635,31.25 261.816406,31.25 C262.923177,31.25 263.867188,31.5429688 264.648438,32.1289062 C265.429688,32.7148438 265.820312,33.4635417 265.820312,34.375 C265.820312,35.2213542 265.429688,35.9375 264.648438,36.5234375 C263.867188,37.109375 262.923177,37.4023438 261.816406,37.4023438 Z M261.816406,31.1523438 C260.709635,31.1523438 259.765625,30.859375 258.984375,30.2734375 C258.203125,29.6875 257.8125,28.9713542 257.8125,28.125 C257.8125,27.2135417 258.203125,26.4648438 258.984375,25.8789062 C259.765625,25.2929688 260.709635,25 261.816406,25 C262.923177,25 263.867188,25.2929688 264.648438,25.8789062 C265.429688,26.4648438 265.820312,27.2135417 265.820312,28.125 C265.820312,28.9713542 265.429688,29.6875 264.648438,30.2734375 C263.867188,30.859375 262.923177,31.1523438 261.816406,31.1523438 Z M261.816406,24.9023438 C260.709635,24.9023438 259.765625,24.609375 258.984375,24.0234375 C258.203125,23.4375 257.8125,22.7213542 257.8125,21.875 C257.8125,20.9635417 258.203125,20.2148438 258.984375,19.6289062 C259.765625,19.0429688 260.709635,18.75 261.816406,18.75 C262.923177,18.75 263.867188,19.0429688 264.648438,19.6289062 C265.429688,20.2148438 265.820312,20.9635417 265.820312,21.875 C265.820312,22.7213542 265.429688,23.4375 264.648438,24.0234375 C263.867188,24.609375 262.923177,24.9023438 261.816406,24.9023438 Z M261.816406,18.6523438 C260.709635,18.6523438 259.765625,18.359375 258.984375,17.7734375 C258.203125,17.1875 257.8125,16.4713542 257.8125,15.625 C257.8125,14.7135417 258.203125,13.9648438 258.984375,13.3789062 C259.765625,12.7929688 260.709635,12.5 261.816406,12.5 C262.923177,12.5 263.867188,12.7929688 264.648438,13.3789062 C265.429688,13.9648438 265.820312,14.7135417 265.820312,15.625 C265.820312,16.4713542 265.429688,17.1875 264.648438,17.7734375 C263.867188,18.359375 262.923177,18.6523438 261.816406,18.6523438 Z M261.816406,12.4023438 C260.709635,12.4023438 259.765625,12.109375 258.984375,11.5234375 C258.203125,10.9375 257.8125,10.2213542 257.8125,9.375 C257.8125,8.46354167 258.203125,7.71484375 258.984375,7.12890625 C259.765625,6.54296875 260.709635,6.25 261.816406,6.25 C262.923177,6.25 263.867188,6.54296875 264.648438,7.12890625 C265.429688,7.71484375 265.820312,8.46354167 265.820312,9.375 C265.820312,10.2213542 265.429688,10.9375 264.648438,11.5234375 C263.867188,12.109375 262.923177,12.4023438 261.816406,12.4023438 Z M249.316406,6.15234375 C248.209635,6.15234375 247.265625,5.859375 246.484375,5.2734375 C245.703125,4.6875 245.3125,3.97135417 245.3125,3.125 C245.3125,2.21354167 245.703125,1.46484375 246.484375,0.87890625 C247.265625,0.29296875 248.209635,0 249.316406,0 C250.423177,0 251.367188,0.29296875 252.148438,0.87890625 C252.213542,0.944010417 252.311198,1.00911458 252.441406,1.07421875 C252.50651,1.00911458 252.604167,0.944010417 252.734375,0.87890625 C253.515625,0.29296875 254.459635,0 255.566406,0 C256.673177,0 257.617188,0.29296875 258.398438,0.87890625 C259.179688,1.46484375 259.570312,2.21354167 259.570312,3.125 C259.570312,3.97135417 259.179688,4.6875 258.398438,5.2734375 C257.617188,5.859375 256.673177,6.15234375 255.566406,6.15234375 C254.459635,6.15234375 253.515625,5.859375 252.734375,5.2734375 C252.604167,5.20833333 252.50651,5.14322917 252.441406,5.078125 C252.311198,5.14322917 252.213542,5.20833333 252.148438,5.2734375 C251.367188,5.859375 250.423177,6.15234375 249.316406,6.15234375 Z M268.066406,6.15234375 C266.959635,6.15234375 266.015625,5.859375 265.234375,5.2734375 C264.453125,4.6875 264.0625,3.97135417 264.0625,3.125 C264.0625,2.21354167 264.453125,1.46484375 265.234375,0.87890625 C266.015625,0.29296875 266.959635,0 268.066406,0 C269.173177,0 270.117188,0.29296875 270.898438,0.87890625 C270.963542,0.944010417 271.061198,1.00911458 271.191406,1.07421875 C271.25651,1.00911458 271.354167,0.944010417 271.484375,0.87890625 C272.265625,0.29296875 273.209635,0 274.316406,0 C275.423177,0 276.367188,0.29296875 277.148438,0.87890625 C277.929688,1.46484375 278.320312,2.21354167 278.320312,3.125 C278.320312,3.97135417 277.929688,4.6875 277.148438,5.2734375 C276.367188,5.859375 275.423177,6.15234375 274.316406,6.15234375 C273.209635,6.15234375 272.265625,5.859375 271.484375,5.2734375 C271.354167,5.20833333 271.25651,5.14322917 271.191406,5.078125 C271.061198,5.14322917 270.963542,5.20833333 270.898438,5.2734375 C270.117188,5.859375 269.173177,6.15234375 268.066406,6.15234375 Z" id="Shape"></path>
                <path d="M288.574219,43.6523438 C287.467448,43.6523438 286.523438,43.359375 285.742188,42.7734375 C284.960938,42.1875 284.570312,41.4713542 284.570312,40.625 C284.570312,39.7135417 284.960938,38.9648438 285.742188,38.3789062 C286.523438,37.7929688 287.467448,37.5 288.574219,37.5 C289.68099,37.5 290.625,37.7929688 291.40625,38.3789062 C291.471354,38.4440104 291.56901,38.5091146 291.699219,38.5742188 C291.764323,38.5091146 291.861979,38.4440104 291.992188,38.3789062 C292.773438,37.7929688 293.717448,37.5 294.824219,37.5 C295.93099,37.5 296.875,37.7929688 297.65625,38.3789062 C297.721354,38.4440104 297.81901,38.5091146 297.949219,38.5742188 C298.014323,38.5091146 298.111979,38.4440104 298.242188,38.3789062 C299.023438,37.7929688 299.967448,37.5 301.074219,37.5 C302.18099,37.5 303.125,37.7929688 303.90625,38.3789062 C304.6875,38.9648438 305.078125,39.7135417 305.078125,40.625 C305.078125,41.4713542 304.6875,42.1875 303.90625,42.7734375 C303.125,43.359375 302.18099,43.6523438 301.074219,43.6523438 C299.967448,43.6523438 299.023438,43.359375 298.242188,42.7734375 C298.111979,42.7083333 298.014323,42.6432292 297.949219,42.578125 C297.81901,42.6432292 297.721354,42.7083333 297.65625,42.7734375 C296.875,43.359375 295.93099,43.6523438 294.824219,43.6523438 C293.717448,43.6523438 292.773438,43.359375 291.992188,42.7734375 C291.861979,42.7083333 291.764323,42.6432292 291.699219,42.578125 C291.699219,42.578125 291.699219,42.578125 291.699219,42.578125 L291.699219,42.578125 C291.699219,42.578125 291.699219,42.578125 291.699219,42.578125 C291.56901,42.6432292 291.471354,42.7083333 291.40625,42.7734375 C290.625,43.359375 289.68099,43.6523438 288.574219,43.6523438 Z M288.574219,37.4023438 C287.467448,37.4023438 286.523438,37.109375 285.742188,36.5234375 C284.960938,35.9375 284.570312,35.2213542 284.570312,34.375 C284.570312,33.4635417 284.960938,32.7148438 285.742188,32.1289062 C286.523438,31.5429688 287.467448,31.25 288.574219,31.25 C289.68099,31.25 290.625,31.5429688 291.40625,32.1289062 C292.1875,32.7148438 292.578125,33.4635417 292.578125,34.375 C292.578125,35.2213542 292.1875,35.9375 291.40625,36.5234375 C290.625,37.109375 289.68099,37.4023438 288.574219,37.4023438 Z M307.324219,37.4023438 C306.217448,37.4023438 305.273438,37.109375 304.492188,36.5234375 C303.710938,35.9375 303.320312,35.2213542 303.320312,34.375 C303.320312,33.4635417 303.710938,32.7148438 304.492188,32.1289062 C305.273438,31.5429688 306.217448,31.25 307.324219,31.25 C308.43099,31.25 309.375,31.5429688 310.15625,32.1289062 C310.9375,32.7148438 311.328125,33.4635417 311.328125,34.375 C311.328125,35.2213542 310.9375,35.9375 310.15625,36.5234375 C309.375,37.109375 308.43099,37.4023438 307.324219,37.4023438 Z M288.574219,31.1523438 C287.467448,31.1523438 286.523438,30.859375 285.742188,30.2734375 C284.960938,29.6875 284.570312,28.9713542 284.570312,28.125 C284.570312,27.2135417 284.960938,26.4648438 285.742188,25.8789062 C286.523438,25.2929688 287.467448,25 288.574219,25 C289.68099,25 290.625,25.2929688 291.40625,25.8789062 C292.1875,26.4648438 292.578125,27.2135417 292.578125,28.125 C292.578125,28.9713542 292.1875,29.6875 291.40625,30.2734375 C290.625,30.859375 289.68099,31.1523438 288.574219,31.1523438 Z M307.324219,31.1523438 C306.217448,31.1523438 305.273438,30.859375 304.492188,30.2734375 C303.710938,29.6875 303.320312,28.9713542 303.320312,28.125 C303.320312,27.2135417 303.710938,26.4648438 304.492188,25.8789062 C305.273438,25.2929688 306.217448,25 307.324219,25 C308.43099,25 309.375,25.2929688 310.15625,25.8789062 C310.9375,26.4648438 311.328125,27.2135417 311.328125,28.125 C311.328125,28.9713542 310.9375,29.6875 310.15625,30.2734375 C309.375,30.859375 308.43099,31.1523438 307.324219,31.1523438 Z M288.574219,24.9023438 C287.467448,24.9023438 286.523438,24.609375 285.742188,24.0234375 C284.960938,23.4375 284.570312,22.7213542 284.570312,21.875 C284.570312,20.9635417 284.960938,20.2148438 285.742188,19.6289062 C286.523438,19.0429688 287.467448,18.75 288.574219,18.75 C289.68099,18.75 290.625,19.0429688 291.40625,19.6289062 C292.1875,20.2148438 292.578125,20.9635417 292.578125,21.875 C292.578125,22.7213542 292.1875,23.4375 291.40625,24.0234375 C290.625,24.609375 289.68099,24.9023438 288.574219,24.9023438 Z M307.324219,24.9023438 C306.217448,24.9023438 305.273438,24.609375 304.492188,24.0234375 C303.710938,23.4375 303.320312,22.7213542 303.320312,21.875 C303.320312,20.9635417 303.710938,20.2148438 304.492188,19.6289062 C305.273438,19.0429688 306.217448,18.75 307.324219,18.75 C308.43099,18.75 309.375,19.0429688 310.15625,19.6289062 C310.9375,20.2148438 311.328125,20.9635417 311.328125,21.875 C311.328125,22.7213542 310.9375,23.4375 310.15625,24.0234375 C309.375,24.609375 308.43099,24.9023438 307.324219,24.9023438 Z M288.574219,18.6523438 C287.467448,18.6523438 286.523438,18.359375 285.742188,17.7734375 C284.960938,17.1875 284.570312,16.4713542 284.570312,15.625 C284.570312,14.7135417 284.960938,13.9648438 285.742188,13.3789062 C286.523438,12.7929688 287.467448,12.5 288.574219,12.5 C289.68099,12.5 290.625,12.7929688 291.40625,13.3789062 C292.1875,13.9648438 292.578125,14.7135417 292.578125,15.625 C292.578125,16.4713542 292.1875,17.1875 291.40625,17.7734375 C290.625,18.359375 289.68099,18.6523438 288.574219,18.6523438 Z M307.324219,18.6523438 C306.217448,18.6523438 305.273438,18.359375 304.492188,17.7734375 C303.710938,17.1875 303.320312,16.4713542 303.320312,15.625 C303.320312,14.7135417 303.710938,13.9648438 304.492188,13.3789062 C305.273438,12.7929688 306.217448,12.5 307.324219,12.5 C308.43099,12.5 309.375,12.7929688 310.15625,13.3789062 C310.9375,13.9648438 311.328125,14.7135417 311.328125,15.625 C311.328125,16.4713542 310.9375,17.1875 310.15625,17.7734375 C309.375,18.359375 308.43099,18.6523438 307.324219,18.6523438 Z M288.574219,12.4023438 C287.467448,12.4023438 286.523438,12.109375 285.742188,11.5234375 C284.960938,10.9375 284.570312,10.2213542 284.570312,9.375 C284.570312,8.46354167 284.960938,7.71484375 285.742188,7.12890625 C286.523438,6.54296875 287.467448,6.25 288.574219,6.25 C289.68099,6.25 290.625,6.54296875 291.40625,7.12890625 C292.1875,7.71484375 292.578125,8.46354167 292.578125,9.375 C292.578125,10.2213542 292.1875,10.9375 291.40625,11.5234375 C290.625,12.109375 289.68099,12.4023438 288.574219,12.4023438 Z M307.324219,12.4023438 C306.217448,12.4023438 305.273438,12.109375 304.492188,11.5234375 C303.710938,10.9375 303.320312,10.2213542 303.320312,9.375 C303.320312,8.46354167 303.710938,7.71484375 304.492188,7.12890625 C305.273438,6.54296875 306.217448,6.25 307.324219,6.25 C308.43099,6.25 309.375,6.54296875 310.15625,7.12890625 C310.9375,7.71484375 311.328125,8.46354167 311.328125,9.375 C311.328125,10.2213542 310.9375,10.9375 310.15625,11.5234375 C309.375,12.109375 308.43099,12.4023438 307.324219,12.4023438 Z M288.574219,6.15234375 C287.467448,6.15234375 286.523438,5.859375 285.742188,5.2734375 C284.960938,4.6875 284.570312,3.97135417 284.570312,3.125 C284.570312,2.21354167 284.960938,1.46484375 285.742188,0.87890625 C286.523438,0.29296875 287.467448,0 288.574219,0 C289.68099,0 290.625,0.29296875 291.40625,0.87890625 C291.471354,0.944010417 291.56901,1.00911458 291.699219,1.07421875 C291.764323,1.00911458 291.861979,0.944010417 291.992188,0.87890625 C292.773438,0.29296875 293.717448,0 294.824219,0 C295.93099,0 296.875,0.29296875 297.65625,0.87890625 C297.721354,0.944010417 297.81901,1.00911458 297.949219,1.07421875 C298.014323,1.00911458 298.111979,0.944010417 298.242188,0.87890625 C299.023438,0.29296875 299.967448,0 301.074219,0 C302.18099,0 303.125,0.29296875 303.90625,0.87890625 C304.6875,1.46484375 305.078125,2.21354167 305.078125,3.125 C305.078125,3.97135417 304.6875,4.6875 303.90625,5.2734375 C303.125,5.859375 302.18099,6.15234375 301.074219,6.15234375 C299.967448,6.15234375 299.023438,5.859375 298.242188,5.2734375 C298.111979,5.20833333 298.014323,5.14322917 297.949219,5.078125 C297.81901,5.14322917 297.721354,5.20833333 297.65625,5.2734375 C296.875,5.859375 295.93099,6.15234375 294.824219,6.15234375 C293.717448,6.15234375 292.773438,5.859375 291.992188,5.2734375 C291.861979,5.20833333 291.764323,5.14322917 291.699219,5.078125 C291.56901,5.14322917 291.471354,5.20833333 291.40625,5.2734375 C290.625,5.859375 289.68099,6.15234375 288.574219,6.15234375 Z" id="Shape"></path>
            </g>
        </g>
    </g>
</svg>